<?xml version="1.0" encoding="utf-8"?>
<!-- Generator: Adobe Illustrator 16.0.0, SVG Export Plug-In . SVG Version: 6.00 Build 0)  -->
<!DOCTYPE svg PUBLIC "-//W3C//DTD SVG 1.1//EN" "http://www.w3.org/Graphics/SVG/1.1/DTD/svg11.dtd">
<svg version="1.1" xmlns="http://www.w3.org/2000/svg" xmlns:xlink="http://www.w3.org/1999/xlink" x="0px" y="0px" width="200px"
	 height="52px" viewBox="0 0 200 52" enable-background="new 0 0 200 52" xml:space="preserve">
<g id="Layer_2">
</g>
<g id="Layer_1">
	<g>
		<g>
			<path fill="#FFFFFF" d="M15.2,29.363h3.163V15.949c0-0.561-0.32-0.842-0.881-0.842H15v-3.002h4.564
				c1.723,0,2.563,0.762,2.563,2.242v1.041c0,0.641-0.12,1.162-0.12,1.162h0.08c1.001-2.402,3.924-4.926,7.207-4.926
				c3.242,0,5.245,1.482,5.926,4.766h0.08c1.121-2.521,3.925-4.766,7.248-4.766c4.484,0,6.606,2.604,6.606,7.768v9.971h3.203v3.004
				h-7.087V20.232c0-2.84-0.521-5.084-3.563-5.084c-3.804,0-5.966,3.885-5.966,7.889v6.326h3.162v3.004h-7.047V20.232
				c0-2.641-0.4-5.084-3.523-5.084c-3.844,0-6.087,4.084-6.087,8.049v6.166h3.204v3.004H15.2V29.363z"/>
			<path fill="#FFFFFF" d="M62.938,25.84h3.404v1.322c0,1.721,2.402,2.521,4.645,2.521c2.282,0,4.084-0.92,4.084-2.602
				c0-2.043-2.242-2.684-5.045-3.686c-3.004-1.119-6.327-2.482-6.327-6.164c0-4.006,3.965-5.607,7.487-5.607
				c2.844,0,7.008,1.121,7.008,4.086v2.441H74.79V16.83c0-1.24-1.602-2.082-3.563-2.082c-1.922,0-3.604,0.803-3.604,2.443
				c0,1.922,2.242,2.723,4.685,3.564c3.122,1.039,6.687,2.361,6.687,6.125c0,3.844-3.523,5.965-8.128,5.965
				c-3.685,0-7.929-1.641-7.929-4.844V25.84z"/>
			<path fill="#FFFFFF" d="M90.152,11.625c3.924,0,5.886,2.803,6.447,3.523h0.08c0,0-0.08-0.561-0.08-1.402v-1.641h3.684v25.266
				h3.163v3.004h-10.21v-3.004h3.162v-6.365c0-1.043,0.121-1.762,0.121-1.762h-0.08c0,0-1.762,3.602-6.527,3.602
				c-5.485,0-8.93-4.322-8.93-10.609C80.982,15.789,84.787,11.625,90.152,11.625z M90.674,29.482c3.002,0,5.846-2.121,5.846-7.285
				c0-3.605-1.883-7.209-5.766-7.209c-3.164,0-5.807,2.643-5.807,7.248C84.947,26.641,87.311,29.482,90.674,29.482z"/>
			<path fill="#FFFFFF" d="M106.008,15.107h-3.404v-3.002h7.288v12.172c0,2.805,0.562,5.047,3.804,5.047
				c4.044,0,6.566-3.885,6.566-7.889v-6.328h-3.402v-3.002h7.288v16.418c0,0.561,0.318,0.879,0.88,0.879h2.122v2.965h-4.205
				c-1.762,0-2.562-0.803-2.562-2.242v-0.881c0-0.682,0.08-1.203,0.08-1.203h-0.08c-0.4,1.082-2.683,4.805-7.728,4.805
				c-4.365,0-6.647-2.4-6.647-7.768V15.107z"/>
			<path fill="#FFFFFF" d="M140.376,20.154h1.28v-0.762c0-3.203-1.842-4.324-4.323-4.324c-3.203,0-5.806,1.961-5.806,1.961
				l-1.563-2.762c0,0,2.963-2.402,7.689-2.402c5.164,0,7.888,2.684,7.888,7.809v9.051c0,0.6,0.319,0.879,0.88,0.879h2.042v3.004
				h-4.044c-1.801,0-2.522-0.883-2.522-2.201v-0.283c0-0.799,0.16-1.32,0.16-1.32h-0.08c0,0-1.762,4.283-6.686,4.283
				c-3.364,0-6.729-1.961-6.729-6.125C128.563,20.596,137.013,20.154,140.376,20.154z M136.133,30.084
				c3.443,0,5.564-3.523,5.564-6.566v-0.84h-1.001c-1.842,0-8.209,0.08-8.209,3.963C132.487,28.441,133.81,30.084,136.133,30.084z"
				/>
			<path fill="#FFFFFF" d="M151.215,29.363h3.043V15.99c0-0.602-0.32-0.883-0.882-0.883h-2.522v-3.002h4.565
				c1.763,0,2.604,0.721,2.604,2.363v1.281c0,0.801-0.08,1.402-0.08,1.402h0.08c0.921-2.965,3.283-5.287,6.406-5.287
				c0.52,0,1.001,0.08,1.001,0.08v3.844c0,0-0.481-0.119-1.123-0.119c-4.323,0-6.165,4.363-6.165,8.328v5.365h3.004v3.004h-9.931
				V29.363z"/>
			<path fill="#FFFFFF" d="M176.229,11.625c5.767,0,8.771,4.244,8.771,9.49c0,0.52-0.121,1.48-0.121,1.48h-14.814
				c0.24,4.486,3.402,6.887,7.006,6.887c3.524,0,6.047-2.281,6.047-2.281l1.602,2.844c0,0-3.043,2.801-7.887,2.801
				c-6.367,0-10.731-4.604-10.731-10.609C166.101,15.789,170.465,11.625,176.229,11.625z M180.995,20.113
				c-0.119-3.563-2.282-5.404-4.846-5.404c-2.963,0-5.364,2-5.925,5.404H180.995z"/>
		</g>
	</g>
</g>
<g id="styles_guides">
</g>
</svg>
