<?xml version="1.0" encoding="utf-8"?>
<!-- Generator: Adobe Illustrator 16.0.3, SVG Export Plug-In . SVG Version: 6.00 Build 0)  -->
<!DOCTYPE svg PUBLIC "-//W3C//DTD SVG 1.1//EN" "http://www.w3.org/Graphics/SVG/1.1/DTD/svg11.dtd">
<svg version="1.1" xmlns="http://www.w3.org/2000/svg" xmlns:xlink="http://www.w3.org/1999/xlink" x="0px" y="0px" width="250px"
	 height="250px" viewBox="0 0 250 250" enable-background="new 0 0 250 250" xml:space="preserve">
<g id="Layer_2">
</g>
<g id="Layer_1">
	<g>
		<g>
			<g>
				<path fill="#FFFFFF" d="M50.066,157.031h12.676V98.716c0-2.435-1.281-3.653-3.53-3.653h-9.949V82.01h18.293
					c6.901,0,10.271,3.305,10.271,9.742v4.529c0,2.783-0.481,5.047-0.481,5.047h0.323c4.011-10.441,15.726-21.41,28.885-21.41
					c13,0,21.022,6.439,23.748,20.714h0.322c4.493-10.964,15.727-20.714,29.05-20.714c17.968,0,26.476,11.315,26.476,33.774v43.339
					h12.838v13.051h-28.405v-52.738c0-12.356-2.086-22.106-14.28-22.106c-15.246,0-23.91,16.886-23.91,34.286v27.508h12.675v13.051
					h-28.242v-52.738c0-11.488-1.604-22.106-14.122-22.106c-15.406,0-24.392,17.757-24.392,34.985v26.809h12.838v13.051H50.066
					V157.031z"/>
			</g>
			<path fill="#FFFFFF" d="M201.653,110.575l-0.185-0.761c-0.229-1.427-0.336-2.386-0.336-3.421c0-9.36,7.063-14.041,13.294-18.254
				c4.843-3.275,9.023-6.058,9.023-10.298c0-3.772-2.576-6.095-6.721-6.095c-5.071,0-8.079,5.177-8.108,5.229l-0.725,1.276
				l-6.629-4.484l0.511-1.053c0.18-0.374,4.562-9.178,15.46-9.178c9.142,0,15.53,5.798,15.53,14.101
				c0,8.39-6.817,12.863-12.834,16.858c-4.369,2.906-8.21,5.258-9.056,8.864h15.105v-5.41h9.017v12.624H201.653z"/>
			<path fill="#FFFFFF" d="M125,235.001c-60.653,0-109.999-49.346-109.999-110.001C15.001,64.347,64.347,15.001,125,15.001
				c29.384,0,57.006,11.44,77.782,32.217l0.638,0.638l-8.924,8.925l-0.639-0.638C175.465,37.753,151.01,27.624,125,27.624
				c-53.693,0-97.376,43.683-97.376,97.376S71.307,222.378,125,222.378s97.378-43.685,97.378-97.378l0,0h12.623l0,0
				C235.001,185.655,185.655,235.001,125,235.001z"/>
		</g>
	</g>
</g>
<g id="styles_guides">
</g>
</svg>
