<?xml version="1.0" encoding="utf-8"?>
<!-- Generator: Adobe Illustrator 16.0.3, SVG Export Plug-In . SVG Version: 6.00 Build 0)  -->
<!DOCTYPE svg PUBLIC "-//W3C//DTD SVG 1.1//EN" "http://www.w3.org/Graphics/SVG/1.1/DTD/svg11.dtd">
<svg version="1.1" xmlns="http://www.w3.org/2000/svg" xmlns:xlink="http://www.w3.org/1999/xlink" x="0px" y="0px" width="250px"
	 height="250px" viewBox="0 0 250 250" enable-background="new 0 0 250 250" xml:space="preserve">
<g id="Layer_2">
</g>
<g id="Layer_1">
	<g>
		<g>
			<path fill="#FFFFFF" d="M15.172,218.082h4.096v-17.377c0-0.725-0.419-1.094-1.145-1.094h-3.209v-3.885h5.915
				c2.226,0,3.309,0.982,3.309,2.9v1.354c0,0.822-0.147,1.502-0.147,1.502h0.098c1.304-3.113,5.095-6.385,9.332-6.385
				c4.206,0,6.802,1.918,7.674,6.176h0.111c1.451-3.258,5.078-6.176,9.383-6.176c5.816,0,8.559,3.383,8.559,10.072v12.912h4.144
				v3.887h-9.173V206.25c0-3.674-0.677-6.576-4.611-6.576c-4.932,0-7.734,5.029-7.734,10.207v8.201h4.094v3.887h-9.123V206.25
				c0-3.416-0.518-6.576-4.563-6.576c-4.98,0-7.884,5.287-7.884,10.416v7.992h4.145v3.887H15.172V218.082z"/>
			<path fill="#FFFFFF" d="M77,213.52h4.402v1.709c0,2.225,3.11,3.258,6.025,3.258c2.951,0,5.288-1.191,5.288-3.367
				c0-2.645-2.902-3.467-6.543-4.773c-3.886-1.449-8.19-3.209-8.19-7.979c0-5.189,5.143-7.27,9.702-7.27
				c3.679,0,9.077,1.465,9.077,5.303v3.16h-4.416v-1.711c0-1.609-2.082-2.705-4.611-2.705c-2.496,0-4.672,1.047-4.672,3.172
				c0,2.484,2.901,3.52,6.074,4.613c4.045,1.352,8.657,3.063,8.657,7.93c0,4.98-4.563,7.734-10.525,7.734
				c-4.772,0-10.269-2.125-10.269-6.281V213.52z"/>
			<path fill="#FFFFFF" d="M112.251,195.098c5.078,0,7.608,3.641,8.351,4.576h0.099c0,0-0.099-0.727-0.099-1.82v-2.127h4.771v32.721
				h4.096v3.887h-13.231v-3.887h4.093v-8.236c0-1.355,0.161-2.287,0.161-2.287h-0.098c0,0-2.288,4.67-8.461,4.67
				c-7.109,0-11.561-5.605-11.561-13.748C100.371,200.496,105.291,195.098,112.251,195.098z M112.916,218.229
				c3.897,0,7.574-2.742,7.574-9.43c0-4.676-2.436-9.334-7.463-9.334c-4.096,0-7.527,3.416-7.527,9.381
				C105.5,214.553,108.563,218.229,112.916,218.229z"/>
			<path fill="#FFFFFF" d="M132.787,199.611h-4.417v-3.885h9.445v15.762c0,3.631,0.727,6.531,4.918,6.531
				c5.238,0,8.51-5.029,8.51-10.205v-8.203h-4.417v-3.885h9.448v21.262c0,0.725,0.416,1.143,1.144,1.143h2.74v3.838h-5.432
				c-2.291,0-3.322-1.035-3.322-2.902v-1.143c0-0.889,0.098-1.551,0.098-1.551h-0.098c-0.53,1.389-3.48,6.221-10.009,6.221
				c-5.659,0-8.608-3.109-8.608-10.07V199.611z"/>
			<path fill="#FFFFFF" d="M177.291,206.154h1.66v-0.984c0-4.156-2.385-5.607-5.593-5.607c-4.157,0-7.526,2.545-7.526,2.545
				l-2.018-3.58c0,0,3.836-3.107,9.949-3.107c6.688,0,10.219,3.467,10.219,10.105v11.723c0,0.771,0.417,1.141,1.143,1.141h2.645
				v3.887h-5.239c-2.335,0-3.271-1.131-3.271-2.852v-0.359c0-1.045,0.209-1.709,0.209-1.709h-0.099c0,0-2.287,5.545-8.655,5.545
				c-4.366,0-8.723-2.543-8.723-7.93C161.992,206.721,172.939,206.154,177.291,206.154z M171.797,219.018
				c4.464,0,7.205-4.576,7.205-8.51v-1.096h-1.291c-2.386,0-10.638,0.111-10.638,5.141
				C167.073,216.889,168.783,219.018,171.797,219.018z"/>
			<path fill="#FFFFFF" d="M191.332,218.082h3.936v-17.326c0-0.775-0.406-1.145-1.132-1.145h-3.272v-3.885h5.917
				c2.276,0,3.37,0.934,3.37,3.063v1.66c0,1.033-0.111,1.807-0.111,1.807h0.111c1.193-3.838,4.254-6.836,8.3-6.836
				c0.662,0,1.291,0.098,1.291,0.098v4.979c0,0-0.629-0.158-1.453-0.158c-5.594,0-7.978,5.656-7.978,10.795v6.949h3.885v3.887
				h-12.863V218.082z"/>
			<path fill="#FFFFFF" d="M223.734,195.098c7.465,0,11.352,5.496,11.352,12.299c0,0.676-0.148,1.916-0.148,1.916h-19.195
				c0.32,5.807,4.414,8.916,9.074,8.916c4.563,0,7.834-2.951,7.834-2.951l2.077,3.678c0,0-3.947,3.639-10.216,3.639
				c-8.254,0-13.896-5.963-13.896-13.748C210.615,200.496,216.258,195.098,223.734,195.098z M229.908,206.105
				c-0.159-4.623-2.963-7.01-6.285-7.01c-3.836,0-6.945,2.592-7.672,7.01H229.908z"/>
		</g>
		<g>
			<g>
				<path fill="#FFFFFF" d="M71.19,119.672h9.098V77.793c0-1.742-0.922-2.621-2.539-2.621h-7.147v-9.373h13.138
					c4.961,0,7.379,2.375,7.379,6.994v3.258c0,1.994-0.341,3.621-0.341,3.621h0.232c2.881-7.506,11.291-15.385,20.733-15.385
					c9.349,0,15.108,4.633,17.064,14.887h0.231c3.22-7.875,11.291-14.887,20.857-14.887c12.905,0,19.021,8.127,19.021,24.262v31.123
					h9.226v9.383h-20.409V91.172c0-8.871-1.494-15.883-10.256-15.883c-10.953,0-17.174,12.129-17.174,24.637v19.746h9.102v9.383
					h-20.285V91.172c0-8.256-1.142-15.883-10.136-15.883c-11.062,0-17.528,12.76-17.528,25.137v19.246h9.227v9.383H71.19V119.672z"
					/>
			</g>
			<path fill="#FFFFFF" d="M180.058,86.316l-0.137-0.557c-0.169-1.021-0.243-1.711-0.243-2.453c0-6.719,5.071-10.08,9.549-13.111
				c3.484-2.354,6.479-4.348,6.479-7.395c0-2.707-1.839-4.373-4.825-4.373c-3.638,0-5.798,3.711-5.818,3.76l-0.529,0.904
				l-4.749-3.215l0.358-0.754c0.136-0.266,3.28-6.596,11.11-6.596c6.56,0,11.145,4.172,11.145,10.119
				c0,6.039-4.89,9.244-9.209,12.113c-3.138,2.09-5.901,3.779-6.515,6.371h10.857V77.25h6.474v9.066H180.058z"/>
			<path fill="#FFFFFF" d="M125,175.676c-43.57,0-79.005-35.436-79.005-79.004C45.995,53.1,81.43,17.666,125,17.666
				c21.098,0,40.949,8.213,55.864,23.141l0.46,0.459l-6.412,6.412l-0.459-0.459C161.246,34.002,143.678,26.732,125,26.732
				c-38.569,0-69.939,31.369-69.939,69.939c0,38.568,31.37,69.938,69.939,69.938s69.939-31.369,69.939-69.938l0,0h9.065l0,0
				C204.005,140.24,168.57,175.676,125,175.676z"/>
		</g>
	</g>
</g>
<g id="styles_guides">
</g>
</svg>
